<svg xmlns="http://www.w3.org/2000/svg" version="1.1" xmlns:xlink="http://www.w3.org/1999/xlink" xmlns:svgjs="http://svgjs.dev/svgjs" width="100%" height="100%" viewBox="0 0 1000 600"><rect width="1000" height="600" x="0" y="0" fill="#050505"/><g><circle r="166.66666666666666" cx="320.65131632486975" cy="342.873516266788" fill="#616161" transform="matrix(0.8117693877324521,0,0,0.8117693877324523,0,21.66578770287896)"/><path d="M316.3804726377115 417.8734873952862Q292.4470027896979 417.8734873952862 273.55957664344453 408.73986639321737L273.55957664344453 408.73986639321737L275.98393283535165 375.8701068610809L289.5997937736209 375.8701068610809L292.64433410764383 398.78872993108683Q304.6251641257896 404.2858166452949 320.4398597497421 404.2858166452949L320.4398597497421 404.2858166452949Q328.16397133791133 404.2858166452949 335.1551380308529 401.01575480504806Q342.1744949120724 397.7738831530792 346.4312133420489 391.68480248503334Q350.6879317720255 385.59572181698746 350.6879317720255 377.8998004170962L350.6879317720255 377.8998004170962Q350.6879317720255 371.8107197490503 348.8555695339561 367.75133263701974Q347.0232072958867 363.6919455249892 342.06173415896046 360.1399818019624Q337.1002610220342 356.58801807893565 327.5437871957956 352.725962284851L327.5437871957956 352.725962284851L305.41448939757333 343.7896726007281Q291.4321560116902 338.09525456857415 283.8208051766329 329.3844863906752Q276.20945434157557 320.6455280244983 276.20945434157557 307.25518859245295L276.20945434157557 307.25518859245295Q276.20945434157557 296.48653667026076 281.7911116206176 287.4656764213039Q287.37276889965966 278.44481617234703 297.6058072445701 273.14506077608496Q307.8670357777585 267.8734955681008 321.65203784569565 267.8734955681008L321.65203784569565 267.8734955681008Q334.05572068801126 267.8734955681008 343.0765809369681 269.3957657351122Q352.097441185925 270.91803590212373 361.8512463301095 273.9625762361466L361.8512463301095 273.9625762361466L359.2013686319785 304.8308324005458L345.61369788198726 304.8308324005458L342.5691575479643 285.74607493634653Q332.81535240377974 281.48935650637 317.818172239889 281.48935650637L317.818172239889 281.48935650637Q306.23200485763505 281.48935650637 299.7482615536973 286.84549227918814Q293.2363280614816 292.2298182402842 293.2363280614816 302.18095470241474L293.2363280614816 302.18095470241474Q293.2363280614816 312.32942248249117 298.31056195151984 318.2211718325911Q303.38479584155806 324.112921182691 317.1979880977732 329.58181770862114L317.1979880977732 329.58181770862114L334.05572068801126 336.2910825187828Q344.99351373987145 340.5478009487593 351.90010986797904 344.91728013184775Q358.80670599608663 349.25856912665824 363.26075574400903 356.4752573258237Q367.7429956802095 363.6919455249892 367.7429956802095 374.85526008307323L367.7429956802095 374.85526008307323Q367.7429956802095 386.8078999129411 361.03373087004786 396.67446581023756Q354.3526562481642 406.51284151925614 342.5691575479643 412.17906936313216Q330.7856588477644 417.8734873952862 316.3804726377115 417.8734873952862L316.3804726377115 417.8734873952862Z " fill="#050505" transform="matrix(0.8117693877324521,0,0,0.8117693877324523,0,21.66578770287896)"/><path d="M601.3753943031713 382.92203235062226Q584.2030650540742 382.92203235062226 570.651285788002 376.36863461598443L570.651285788002 376.36863461598443L572.3907679027516 352.7844933857755L582.1601848960543 352.7844933857755L584.3446508076001 369.2286673310241Q592.9409287002578 373.1728418935376 604.288015518566 373.1728418935376L604.288015518566 373.1728418935376Q609.8300864423029 373.1728418935376 614.8462674243713 370.8265636922475Q619.8826749426578 368.5005120271755 622.9368819115784 364.13158020408355Q625.9910888804992 359.76264838099166 625.9910888804992 354.24080399347275L625.9910888804992 354.24080399347275Q625.9910888804992 349.87187217038087 624.676364026328 346.9592509549863Q623.3616391721569 344.0466297395917 619.8017687977857 341.49808617612143Q616.2418984234146 338.9495426126512 609.3851026455064 336.17850715078276L609.3851026455064 336.17850715078276L593.5072717143623 329.76669516967104Q583.4749097502254 325.6809348536314 578.0137449713607 319.43093516226384Q572.5525801924957 313.16070893467827 572.5525801924957 303.5531042311198L572.5525801924957 303.5531042311198Q572.5525801924957 295.8265673958369 576.5574343636633 289.35407580607114Q580.5622885348308 282.88158421630544 587.9045211819714 279.078995407318Q595.2669803653299 275.29663313454864 605.1577565759408 275.29663313454864L605.1577565759408 275.29663313454864Q614.0574325118686 275.29663313454864 620.5299241016344 276.38886609032164Q627.0024156914001 277.48109904609464 634.0007972228343 279.6655649576405L634.0007972228343 279.6655649576405L632.0995028183406 301.8136221163702L622.3503123612559 301.8136221163702L620.16584644971 288.1202570967721Q613.1674649182758 285.0660501278513 602.4069476502902 285.0660501278513L602.4069476502902 285.0660501278513Q594.0938412646849 285.0660501278513 589.4417379345407 288.9090920092748Q584.7694080681786 292.7723604269162 584.7694080681786 299.9123277118765L584.7694080681786 299.9123277118765Q584.7694080681786 307.193880750363 588.4101845874218 311.42122681992873Q592.050961106665 315.6485728894945 601.9619638534939 319.57252091579L601.9619638534939 319.57252091579L614.0574325118686 324.3864365356783Q621.9053285644595 327.440643504599 626.860829937874 330.5757566183918Q631.8163313112884 333.6906431959665 635.0121240337353 338.86863646777914Q638.2281432924001 344.0466297395917 638.2281432924001 352.05633808192687L638.2281432924001 352.05633808192687Q638.2281432924001 360.6323894383665 633.4142276725117 367.71167711467274Q628.6205385888416 374.770738254761 620.16584644971 378.83627203458263Q611.7111543105784 382.92203235062226 601.3753943031713 382.92203235062226L601.3753943031713 382.92203235062226ZM683.9603416813386 373.90099719738623Q687.742703954108 373.90099719738623 694.2961016887459 372.58627234321506L694.2961016887459 372.58627234321506L692.9813768345748 380.1509968887538Q690.7969109230287 381.1825502358727 685.8414095496144 382.0522912932475Q680.8859081762 382.92203235062226 675.6472352957333 382.92203235062226L675.6472352957333 382.92203235062226Q666.4846143889711 382.92203235062226 662.3988540729315 377.54177371662945Q658.3130937568919 372.1412885464187 658.3130937568919 360.93578748163674L658.3130937568919 360.93578748163674L658.3130937568919 319.85569242284225L647.5525764889063 319.85569242284225L647.5525764889063 312.87753742762607L658.3130937568919 311.5628125734549L658.3130937568919 298.5976028577054L669.9635786184701 295.98837968558104L669.9635786184701 311.5628125734549L689.3406003153314 310.10650196575756L689.3406003153314 319.85569242284225L669.9635786184701 319.85569242284225L669.9635786184701 356.42526990501875Q669.9635786184701 362.9786676396565 671.0558115742433 366.6801237675538Q672.1480445300163 370.4018064316691 675.1415718902829 372.1412885464187Q678.1350992505495 373.90099719738623 683.9603416813386 373.90099719738623L683.9603416813386 373.90099719738623ZM741.4846106853818 311.5628125734549L773.361631764978 311.5628125734549L773.361631764978 319.1275371189936L766.9700463200843 320.0175047125864Q764.1990108582161 320.44226197316476 762.7427002505187 323.9414527388819L762.7427002505187 323.9414527388819L733.899659603625 400.2561738894636Q727.6496599122574 417.8734869353573 712.0550004881657 417.8734869353573L712.0550004881657 417.8734869353573Q707.8276544185999 417.8734869353573 704.9959393480774 417.36782352990684Q702.1642242775549 416.86216012445635 698.9482050188899 415.9721925308636L698.9482050188899 415.9721925308636L697.4918944111928 407.2343288846798Q699.5347745692125 407.82089843500233 702.8114734365315 408.1849760869267Q706.0881723038503 408.549053738851 707.989466708344 408.549053738851L707.989466708344 408.549053738851Q719.9231230769747 408.549053738851 724.7370386968628 395.88724206637175L724.7370386968628 395.88724206637175L728.8025724766844 384.82332675511594L705.5016027535278 324.083038492408Q704.7734474496792 322.0401583343882 703.7621206387782 321.10973766835934Q702.7305672916593 320.1590904661125 700.9910851769098 320.0175047125864L700.9910851769098 320.0175047125864L694.7208589493243 319.1275371189936L694.7208589493243 311.5628125734549L728.6609867231584 311.5628125734549L728.6609867231584 318.9859513654675L720.2062945840269 320.0175047125864Q719.1949677731259 320.1590904661125 718.5477186141493 320.745660016435Q717.8802429189548 321.31200303053953 717.8802429189548 322.20197062413234L717.8802429189548 322.20197062413234Q717.8802429189548 322.93012592798095 718.9117962660737 325.98433289690166L718.9117962660737 325.98433289690166L734.0412453571512 367.04420141947816L735.8009540081187 372.2828742999448L736.2257112686971 367.04420141947816L751.3753868959925 325.98433289690166Q752.2451279533673 323.35488318855937 752.2451279533673 322.20197062413234L752.2451279533673 322.20197062413234Q752.2451279533673 321.31200303053953 751.5978787943907 320.745660016435Q750.9506296354141 320.1590904661125 750.0606620418214 320.0175047125864L750.0606620418214 320.0175047125864L741.4846106853818 318.9859513654675L741.4846106853818 311.5628125734549ZM776.5776510236428 381.4657217429249L776.5776510236428 373.597599154116L784.1423755691817 372.58627234321506Q786.1852557272014 372.44468658968896 786.832504886178 371.35245363391596Q787.4999805813727 370.260220678143 787.4999805813727 367.18578717300426L787.4999805813727 367.18578717300426L787.4999805813727 281.5668593621342Q787.4999805813727 278.65423814673966 786.832504886178 277.7035909444928Q786.1852557272014 276.752943742246 784.1423755691817 276.4697722351937L784.1423755691817 276.4697722351937L776.5776510236428 275.60003117781895L776.5776510236428 267.8734943425361L799.1504654429509 267.8734943425361L799.1504654429509 367.18578717300426Q799.1504654429509 370.260220678143 799.7370349932735 371.35245363391596Q800.3033780073781 372.44468658968896 802.487843918924 372.58627234321506L802.487843918924 372.58627234321506L809.9312092471546 373.597599154116L809.9312092471546 381.4657217429249L776.5776510236428 381.4657217429249ZM853.6205274780734 373.0110296037935Q863.0865464281057 373.0110296037935 876.4765134044337 368.94549582397184L876.4765134044337 368.94549582397184L878.5193935624534 376.2270488624583Q873.2807206819868 378.83627203458263 865.3316919483057 380.8791521926024Q857.4028897508426 382.92203235062226 849.5347671620336 382.92203235062226L849.5347671620336 382.92203235062226Q834.6884895780086 382.92203235062226 827.184444641124 373.82009105251416Q819.6803997042393 364.71814975440606 819.6803997042393 349.4268883735845L819.6803997042393 349.4268883735845Q819.6803997042393 331.6679895741647 827.9732795536265 320.88724576996117Q836.2863859392319 310.10650196575756 852.1642168703761 310.10650196575756L852.1642168703761 310.10650196575756Q862.7831483848354 310.10650196575756 868.6892969604967 314.33384803532334Q874.57521899994 318.56119410488907 876.8405910563579 326.4090901574801Q879.105963112776 334.2772127462891 879.105963112776 346.3726814046638L879.105963112776 346.3726814046638L832.3422113767185 349.2853026200584Q832.6456094199887 361.07737323516284 838.1067741988536 367.04420141947816Q843.5679389777185 373.0110296037935 853.6205274780734 373.0110296037935L853.6205274780734 373.0110296037935ZM850.2629224658824 319.7141066693161Q843.8511104847707 319.7141066693161 840.1496543568735 321.67608068246386Q836.4279716927581 323.6582812318296 834.6884895780086 328.1687988084476Q832.9287809270411 332.67931638506565 832.3422113767185 340.972196234453L832.3422113767185 340.972196234453L867.1520802079274 337.9179892655323Q867.1520802079274 329.18012561934853 863.288811790286 324.4471161443323Q859.4457699088625 319.7141066693161 850.2629224658824 319.7141066693161L850.2629224658824 319.7141066693161ZM970.2669618473831 382.92203235062226Q953.8025613659163 382.92203235062226 944.2758628072299 373.90099719738623Q934.7289377123254 364.8597355079322 934.7289377123254 346.9592509549863L934.7289377123254 346.9592509549863L934.7289377123254 291.7610336160153Q934.7289377123254 288.8484124006207 933.9198762636047 287.7561794448477Q933.1310413511019 286.66394648907476 930.5015916427596 286.21896269227835L930.5015916427596 286.21896269227835L923.2200386042732 284.9042378381072L923.2200386042732 276.6113579887198L958.3130789425343 276.6113579887198L958.3130789425343 284.9042378381072L951.0315259040478 286.21896269227835Q948.4223027319235 286.66394648907476 947.6132412832028 287.7561794448477Q946.8244063707002 288.8484124006207 946.8244063707002 291.7610336160153L946.8244063707002 291.7610336160153L946.8244063707002 344.7747850434404Q946.8244063707002 358.60973581656464 953.5800694675181 365.0013212614583Q960.3559591005542 371.41313324257004 973.4627545698297 371.41313324257004L973.4627545698297 371.41313324257004Q981.4724629121649 371.41313324257004 986.4279642855793 369.08708157749794Q991.3834656589938 366.7610299124259 993.8511030775919 360.6323894383665Q996.3389670324082 354.523975500525 996.3389670324082 343.6016459427953L996.3389670324082 343.6016459427953L996.3389670324082 291.7610336160153Q996.3389670324082 288.8484124006207 995.5299055836874 287.7561794448477Q994.7208441349667 286.66394648907476 992.1116209628424 286.21896269227835L992.1116209628424 286.21896269227835L984.830067924356 284.9042378381072L984.830067924356 276.6113579887198L1019.1949529587685 276.6113579887198L1019.1949529587685 284.9042378381072L1012.054985673808 286.21896269227835Q1009.4457625016837 286.66394648907476 1008.636701052963 287.7561794448477Q1007.8276396042422 288.8484124006207 1007.8276396042422 291.7610336160153L1007.8276396042422 291.7610336160153L1007.8276396042422 345.64452610081514Q1007.8276396042422 362.9786676396565 997.8559572487595 372.9503499951394Q987.8842748932766 382.92203235062226 970.2669618473831 382.92203235062226L970.2669618473831 382.92203235062226ZM1025.8899364469323 377.8249452236817L1027.2046613011034 360.20763217778807L1035.659353440235 360.20763217778807L1036.812266004662 370.8265636922475Q1043.8106475360962 373.90099719738623 1051.9619416319574 373.90099719738623L1051.9619416319574 373.90099719738623Q1057.7871840627467 373.90099719738623 1061.8729443787863 371.41313324257004Q1065.938478158608 368.94549582397184 1065.938478158608 363.2618391467088L1065.938478158608 363.2618391467088Q1065.938478158608 359.9042341345178 1063.3292549864836 357.5175028607917Q1060.6998052781412 355.1105450508475 1055.3195466441484 352.92607913930163L1055.3195466441484 352.92607913930163L1045.1253723902673 348.840318823262Q1035.9425249472872 345.19954230401873 1031.7960850225936 340.972196234453Q1027.6496450979 336.7650767011053 1027.6496450979 329.32171137287463L1027.6496450979 329.32171137287463Q1027.6496450979 320.0175047125864 1035.2143696434387 315.062003339172Q1042.7790941889773 310.10650196575756 1053.4182522396547 310.10650196575756L1053.4182522396547 310.10650196575756Q1063.754012247062 310.10650196575756 1075.9910666589628 314.19226228179724L1075.9910666589628 314.19226228179724L1074.817927558318 331.2230057773683L1066.5250477089305 331.2230057773683L1064.6237533044368 320.58384772669086Q1057.5040125556945 318.399381815145 1050.7888025313125 318.399381815145L1050.7888025313125 318.399381815145Q1038.8551461626819 318.399381815145 1038.8551461626819 327.5822292581251L1038.8551461626819 327.5822292581251Q1038.8551461626819 331.5061772844206 1041.6868612332044 334.05472084789085Q1044.538802839945 336.6032644113611 1050.6472167777863 339.0911283661773L1050.6472167777863 339.0911283661773L1059.6884784672404 342.59031913189443Q1069.1544974172728 346.3726814046638 1073.5234292403647 350.2966294309593Q1077.8923610634565 354.24080399347275 1077.8923610634565 361.07737323516284L1077.8923610634565 361.07737323516284Q1077.8923610634565 367.7723567233268 1074.1706783993413 372.7278580967412Q1070.448995735226 377.6833594701556 1064.3405817973844 380.2925826422799Q1058.232167859543 382.92203235062226 1051.2337863281089 382.92203235062226L1051.2337863281089 382.92203235062226Q1043.6690617825702 382.92203235062226 1037.843819351781 381.6073074964511Q1032.0185769209918 380.2925826422799 1025.8899364469323 377.8249452236817L1025.8899364469323 377.8249452236817Z " fill="#616161" transform="matrix(0.8117693877324521,0,0,0.8117693877324523,0,21.66578770287896)"/></g></svg>